<svg viewBox="0 0 606 606" fill="none" xmlns="http://www.w3.org/2000/svg">
<circle cx="303" cy="303" r="303" fill="url(#paint0_radial_8_341)" fill-opacity="0.2"/>
<circle cx="303" cy="303" r="303" fill="url(#paint1_linear_8_341)" fill-opacity="0.2"/>
<circle cx="303" cy="302" r="264" fill="url(#paint2_radial_8_341)" fill-opacity="0.2"/>
<circle cx="303" cy="302" r="264" fill="url(#paint3_linear_8_341)" fill-opacity="0.2"/>
<g clip-path="url(#clip0_8_341)">
<path d="M596 269.552H595.01V242.39C595.01 240.326 594.604 238.282 593.816 236.374C593.027 234.467 591.871 232.734 590.414 231.274C588.957 229.815 587.227 228.657 585.324 227.867C583.42 227.077 581.379 226.67 579.319 226.67H521.879C519.818 226.67 517.778 227.077 515.874 227.867C513.97 228.657 512.24 229.815 510.783 231.274C509.326 232.734 508.17 234.467 507.382 236.374C506.593 238.282 506.187 240.326 506.187 242.39V391.401C506.187 393.465 506.593 395.509 507.382 397.417C508.17 399.324 509.326 401.057 510.783 402.517C512.24 403.976 513.97 405.134 515.874 405.924C517.778 406.714 519.818 407.121 521.879 407.121H579.319C581.379 407.121 583.42 406.714 585.324 405.924C587.227 405.134 588.957 403.976 590.414 402.517C591.871 401.057 593.027 399.324 593.816 397.417C594.604 395.509 595.01 393.465 595.01 391.401V288.886H596V269.552Z" fill="#3F3D56"/>
<path d="M591.671 243.314V392.108C591.671 395.222 590.436 398.208 588.238 400.41C586.041 402.612 583.06 403.849 579.951 403.849H522.235C520.696 403.849 519.173 403.545 517.751 402.955C516.33 402.365 515.038 401.5 513.95 400.409C512.862 399.319 512 398.025 511.411 396.6C510.823 395.176 510.52 393.649 510.521 392.108V243.314C510.521 240.201 511.755 237.216 513.952 235.015C516.149 232.814 519.128 231.578 522.235 231.578H529.237C528.894 232.425 528.763 233.343 528.857 234.252C528.951 235.162 529.266 236.034 529.775 236.793C530.284 237.551 530.971 238.173 531.776 238.603C532.581 239.033 533.479 239.259 534.392 239.26H567.299C568.213 239.261 569.113 239.038 569.919 238.608C570.726 238.179 571.414 237.557 571.924 236.797C572.433 236.038 572.748 235.164 572.841 234.254C572.933 233.344 572.8 232.425 572.454 231.578H579.951C583.059 231.578 586.039 232.814 588.237 235.015C590.435 237.216 591.67 240.201 591.671 243.314Z" fill="#D0CDE1"/>
<path d="M580.745 307.756H513.652V325.894H580.745V307.756Z" fill="#A4BCFD"/>
<path d="M583.407 322.693H518.444C518.02 322.693 517.614 322.524 517.315 322.224C517.015 321.924 516.847 321.517 516.846 321.093V305.089C516.847 304.665 517.015 304.258 517.315 303.958C517.614 303.658 518.02 303.489 518.444 303.489H583.407C583.831 303.489 584.237 303.658 584.536 303.958C584.836 304.258 585.004 304.665 585.005 305.089V321.093C585.004 321.517 584.836 321.924 584.536 322.224C584.237 322.524 583.831 322.693 583.407 322.693ZM518.444 304.556C518.303 304.556 518.167 304.612 518.068 304.712C517.968 304.812 517.912 304.948 517.911 305.089V321.093C517.912 321.234 517.968 321.37 518.068 321.47C518.167 321.57 518.303 321.626 518.444 321.626H583.407C583.548 321.626 583.684 321.57 583.784 321.47C583.883 321.37 583.939 321.234 583.94 321.093V305.089C583.939 304.948 583.883 304.812 583.784 304.712C583.684 304.612 583.548 304.556 583.407 304.556H518.444Z" fill="#3F3D56"/>
<path d="M529.626 317.892H521.106V318.959H529.626V317.892Z" fill="#3F3D56"/>
<path d="M541.341 317.892H532.821V318.959H541.341V317.892Z" fill="#3F3D56"/>
<path d="M553.055 317.892H544.536V318.959H553.055V317.892Z" fill="#3F3D56"/>
<path d="M564.77 317.892H556.25V318.959H564.77V317.892Z" fill="#3F3D56"/>
<path d="M576.485 317.892H567.965V318.959H576.485V317.892Z" fill="#3F3D56"/>
<path opacity="0.1" d="M591.671 376.979V392.108C591.671 395.222 590.436 398.208 588.238 400.41C586.041 402.612 583.06 403.849 579.951 403.849H522.235C520.696 403.849 519.173 403.545 517.751 402.955C516.33 402.365 515.038 401.5 513.95 400.409C512.862 399.319 512 398.025 511.411 396.6C510.823 395.176 510.52 393.649 510.521 392.108V322.512L591.671 376.979Z" fill="black"/>
<path d="M315.035 363.237H63.1693V487H315.035V363.237Z" fill="#D0CDE1"/>
<path opacity="0.1" d="M251.003 487H64.2343C63.9521 486.999 63.6817 486.886 63.4822 486.687C63.2826 486.487 63.1701 486.216 63.1693 485.933V364.303C63.1701 364.021 63.2826 363.75 63.4821 363.55C63.6817 363.35 63.9521 363.237 64.2343 363.237H66.5985L251.003 487Z" fill="black"/>
<path d="M570.095 379.774H179.784V380.841H570.095V379.774Z" fill="#3F3D56"/>
<path d="M303.182 120.303H191.632V118H141.051V120.303H29.0413C28.0504 120.303 27.0692 120.499 26.1537 120.879C25.2382 121.259 24.4064 121.816 23.7058 122.517C23.0051 123.219 22.4493 124.053 22.0701 124.97C21.6909 125.887 21.4957 126.87 21.4957 127.863V280.89C21.4957 282.895 22.2907 284.817 23.7058 286.235C25.1208 287.653 27.0401 288.449 29.0413 288.449H303.182C305.184 288.449 307.103 287.653 308.518 286.235C309.933 284.817 310.728 282.895 310.728 280.89V127.863C310.728 126.87 310.533 125.887 310.154 124.97C309.774 124.053 309.219 123.219 308.518 122.517C307.817 121.816 306.985 121.259 306.07 120.879C305.155 120.499 304.173 120.303 303.182 120.303Z" fill="#3F3D56"/>
<path d="M300.61 133.661H31.6143V285.687H300.61V133.661Z" fill="#D0CDE1"/>
<path d="M165.882 129.517C167.406 129.517 168.641 128.279 168.641 126.753C168.641 125.226 167.406 123.989 165.882 123.989C164.358 123.989 163.123 125.226 163.123 126.753C163.123 128.279 164.358 129.517 165.882 129.517Z" fill="#A4BCFD"/>
<path d="M111.625 190.395H105.236C104.812 190.394 104.406 190.225 104.107 189.925C103.807 189.625 103.639 189.218 103.638 188.794V182.393C103.639 181.968 103.807 181.562 104.107 181.261C104.406 180.961 104.812 180.793 105.236 180.792H111.625C112.049 180.793 112.455 180.961 112.755 181.261C113.054 181.562 113.222 181.968 113.223 182.393V188.794C113.222 189.218 113.054 189.625 112.755 189.925C112.455 190.225 112.049 190.394 111.625 190.395ZM105.236 181.859C105.094 181.859 104.959 181.916 104.859 182.016C104.759 182.116 104.703 182.251 104.703 182.393V188.794C104.703 188.936 104.759 189.071 104.859 189.171C104.959 189.271 105.094 189.327 105.236 189.328H111.625C111.767 189.327 111.902 189.271 112.002 189.171C112.102 189.071 112.158 188.936 112.158 188.794V182.393C112.158 182.251 112.102 182.116 112.002 182.016C111.902 181.916 111.767 181.859 111.625 181.859H105.236Z" fill="#3F3D56"/>
<path d="M225.577 189.328H104.171V190.395H225.577V189.328Z" fill="#3F3D56"/>
<path d="M222.382 218.668H194.161V227.203H222.382V218.668Z" fill="#A4BCFD"/>
<path d="M224.512 225.07H198.421C197.997 225.069 197.591 224.9 197.291 224.6C196.992 224.3 196.824 223.894 196.823 223.469V217.068C196.824 216.643 196.992 216.237 197.291 215.937C197.591 215.637 197.997 215.468 198.421 215.467H224.512C224.936 215.468 225.342 215.637 225.641 215.937C225.941 216.237 226.109 216.643 226.11 217.068V223.469C226.109 223.894 225.941 224.3 225.641 224.6C225.342 224.9 224.936 225.069 224.512 225.07ZM198.421 216.534C198.279 216.534 198.144 216.591 198.044 216.691C197.944 216.791 197.888 216.926 197.888 217.068V223.469C197.888 223.611 197.944 223.746 198.044 223.846C198.144 223.946 198.279 224.003 198.421 224.003H224.512C224.653 224.003 224.789 223.946 224.889 223.846C224.988 223.746 225.045 223.611 225.045 223.469V217.068C225.045 216.926 224.988 216.791 224.889 216.691C224.789 216.591 224.653 216.534 224.512 216.534H198.421Z" fill="#3F3D56"/>
<path d="M438.039 228.27H384.79V265.613H438.039V228.27Z" fill="#A4BCFD"/>
<path d="M443.364 262.679H392.245C391.68 262.678 391.139 262.453 390.74 262.053C390.34 261.653 390.116 261.111 390.115 260.545V225.336C390.116 224.771 390.34 224.228 390.74 223.828C391.139 223.428 391.68 223.203 392.245 223.203H443.364C443.928 223.203 444.47 223.428 444.869 223.828C445.268 224.228 445.493 224.771 445.494 225.336V260.545C445.493 261.111 445.268 261.653 444.869 262.053C444.47 262.453 443.928 262.678 443.364 262.679ZM392.245 225.336V260.545H443.365L443.364 225.336H392.245Z" fill="#3F3D56"/>
<path d="M437.506 224.003H435.376C435.376 219.334 433.525 214.856 430.23 211.555C426.934 208.253 422.465 206.398 417.804 206.398C413.144 206.398 408.674 208.253 405.379 211.555C402.084 214.856 400.232 219.334 400.232 224.003H398.102C398.102 218.768 400.178 213.747 403.873 210.046C407.568 206.344 412.579 204.265 417.804 204.265C423.03 204.265 428.041 206.344 431.736 210.046C435.431 213.747 437.506 218.768 437.506 224.003Z" fill="#3F3D56"/>
<path d="M423.129 238.673C423.13 237.744 422.889 236.831 422.43 236.024C421.97 235.217 421.309 234.544 420.51 234.072C419.711 233.6 418.804 233.345 417.876 233.333C416.949 233.32 416.035 233.55 415.224 234C414.413 234.45 413.733 235.105 413.252 235.899C412.771 236.693 412.505 237.6 412.481 238.528C412.457 239.457 412.675 240.376 413.114 241.194C413.554 242.012 414.199 242.701 414.985 243.193V248.919C414.985 249.289 415.058 249.657 415.2 249.999C415.342 250.342 415.549 250.653 415.811 250.916C416.073 251.178 416.383 251.386 416.725 251.528C417.067 251.67 417.434 251.743 417.804 251.743C418.552 251.743 419.269 251.445 419.798 250.916C420.326 250.386 420.623 249.668 420.623 248.919V243.193C421.39 242.715 422.022 242.049 422.46 241.258C422.899 240.467 423.129 239.578 423.129 238.673Z" fill="#3F3D56"/>
<path d="M169.933 418.183H161.413V419.25H169.933V418.183Z" fill="#3F3D56"/>
<path d="M181.647 418.183H173.127V419.25H181.647V418.183Z" fill="#3F3D56"/>
<path d="M193.362 418.183H184.842V419.25H193.362V418.183Z" fill="#3F3D56"/>
<path d="M205.077 418.183H196.557V419.25H205.077V418.183Z" fill="#3F3D56"/>
<path d="M216.791 418.183H208.271V419.25H216.791V418.183Z" fill="#3F3D56"/>
<path d="M326.217 477.931H76.4815C75.9168 477.931 75.3754 477.706 74.9761 477.306C74.5768 476.906 74.3522 476.363 74.3516 475.797V354.168C74.3522 353.602 74.5768 353.06 74.9761 352.66C75.3754 352.26 75.9168 352.035 76.4815 352.034H326.217C326.781 352.035 327.323 352.259 327.722 352.66C328.121 353.06 328.346 353.602 328.347 354.168V475.797C328.346 476.363 328.121 476.906 327.722 477.306C327.323 477.706 326.781 477.931 326.217 477.931ZM76.4815 354.168V475.797H326.218L326.217 354.168H76.4815Z" fill="#3F3D56"/>
<path d="M87.6636 372.305C89.4281 372.305 90.8585 370.872 90.8585 369.105C90.8585 367.337 89.4281 365.904 87.6636 365.904C85.8991 365.904 84.4687 367.337 84.4687 369.105C84.4687 370.872 85.8991 372.305 87.6636 372.305Z" fill="#3F3D56"/>
<path d="M98.8458 372.305C100.61 372.305 102.041 370.872 102.041 369.105C102.041 367.337 100.61 365.904 98.8458 365.904C97.0813 365.904 95.6509 367.337 95.6509 369.105C95.6509 370.872 97.0813 372.305 98.8458 372.305Z" fill="#3F3D56"/>
<path d="M110.028 372.305C111.792 372.305 113.223 370.872 113.223 369.105C113.223 367.337 111.792 365.904 110.028 365.904C108.263 365.904 106.833 367.337 106.833 369.105C106.833 370.872 108.263 372.305 110.028 372.305Z" fill="#3F3D56"/>
<path d="M225.045 425.652H153.159C152.736 425.651 152.33 425.482 152.03 425.182C151.731 424.882 151.562 424.476 151.562 424.051V405.914C151.562 405.489 151.731 405.082 152.03 404.782C152.33 404.482 152.736 404.314 153.159 404.313H225.045C225.468 404.314 225.874 404.482 226.174 404.782C226.473 405.082 226.642 405.489 226.642 405.914V424.051C226.642 424.476 226.473 424.882 226.174 425.182C225.874 425.482 225.468 425.651 225.045 425.652ZM153.159 405.38C153.018 405.38 152.883 405.437 152.783 405.537C152.683 405.637 152.627 405.772 152.627 405.914V424.051C152.627 424.193 152.683 424.328 152.783 424.428C152.883 424.528 153.018 424.585 153.159 424.585H225.045C225.186 424.585 225.321 424.528 225.421 424.428C225.521 424.328 225.577 424.193 225.577 424.051V405.914C225.577 405.772 225.521 405.637 225.421 405.537C225.321 405.437 225.186 405.38 225.045 405.38H153.159Z" fill="#3F3D56"/>
<path d="M243.149 426.185C248.443 426.185 252.734 421.886 252.734 416.583C252.734 411.28 248.443 406.981 243.149 406.981C237.856 406.981 233.564 411.28 233.564 416.583C233.564 421.886 237.856 426.185 243.149 426.185Z" fill="#A4BCFD"/>
<path d="M246.344 425.118C244.343 425.118 242.387 424.524 240.723 423.41C239.06 422.296 237.763 420.713 236.997 418.861C236.231 417.009 236.031 414.971 236.421 413.005C236.812 411.039 237.775 409.233 239.19 407.815C240.605 406.398 242.408 405.433 244.37 405.041C246.333 404.65 248.367 404.851 250.216 405.618C252.064 406.385 253.645 407.684 254.756 409.351C255.868 411.018 256.461 412.978 256.461 414.982C256.458 417.67 255.391 420.246 253.495 422.146C251.598 424.046 249.026 425.115 246.344 425.118ZM246.344 405.914C244.554 405.914 242.804 406.445 241.315 407.442C239.826 408.438 238.666 409.855 237.981 411.512C237.296 413.169 237.117 414.992 237.466 416.752C237.815 418.511 238.677 420.127 239.943 421.395C241.209 422.663 242.822 423.527 244.578 423.877C246.334 424.227 248.154 424.047 249.808 423.361C251.462 422.675 252.876 421.512 253.871 420.021C254.865 418.529 255.396 416.776 255.396 414.982C255.394 412.578 254.439 410.273 252.742 408.573C251.045 406.873 248.744 405.916 246.344 405.914Z" fill="#3F3D56"/>
<path d="M246.486 418.768L241.331 413.603L242.837 412.094L246.202 415.465L255.591 402.098L257.332 403.327L246.486 418.768Z" fill="#3F3D56"/>
<path opacity="0.1" d="M240.971 285.687H31.6141V145.178L240.971 285.687Z" fill="black"/>
<path d="M318.281 282.921H292.028V281.026C292.028 280.977 292.019 280.928 292 280.882C291.981 280.837 291.953 280.795 291.918 280.76C291.884 280.726 291.842 280.698 291.797 280.679C291.751 280.66 291.703 280.65 291.653 280.65H282.652C282.603 280.65 282.554 280.66 282.509 280.679C282.463 280.698 282.422 280.726 282.387 280.76C282.352 280.795 282.325 280.837 282.306 280.882C282.287 280.928 282.277 280.977 282.277 281.026V282.921H276.652V281.026C276.652 280.977 276.642 280.928 276.623 280.882C276.604 280.837 276.577 280.795 276.542 280.76C276.507 280.726 276.466 280.698 276.42 280.679C276.375 280.66 276.326 280.65 276.277 280.65H267.276C267.227 280.65 267.178 280.66 267.132 280.679C267.087 280.698 267.045 280.726 267.011 280.76C266.976 280.795 266.948 280.837 266.929 280.882C266.91 280.928 266.901 280.977 266.901 281.026V282.921H261.275V281.026C261.275 280.977 261.266 280.928 261.247 280.882C261.228 280.837 261.2 280.795 261.165 280.76C261.131 280.726 261.089 280.698 261.044 280.679C260.998 280.66 260.949 280.65 260.9 280.65H251.899C251.85 280.65 251.801 280.66 251.756 280.679C251.71 280.698 251.669 280.726 251.634 280.76C251.599 280.795 251.572 280.837 251.553 280.882C251.534 280.928 251.524 280.977 251.524 281.026V282.921H245.899V281.026C245.899 280.977 245.889 280.928 245.87 280.882C245.851 280.837 245.824 280.795 245.789 280.76C245.754 280.726 245.713 280.698 245.667 280.679C245.622 280.66 245.573 280.65 245.524 280.65H236.523C236.473 280.65 236.425 280.66 236.379 280.679C236.334 280.698 236.292 280.726 236.258 280.76C236.223 280.795 236.195 280.837 236.176 280.882C236.157 280.928 236.148 280.977 236.148 281.026V282.921H230.522V281.026C230.522 280.977 230.512 280.928 230.494 280.882C230.475 280.837 230.447 280.795 230.412 280.76C230.377 280.726 230.336 280.698 230.291 280.679C230.245 280.66 230.196 280.65 230.147 280.65H221.146C221.097 280.65 221.048 280.66 221.003 280.679C220.957 280.698 220.916 280.726 220.881 280.76C220.846 280.795 220.819 280.837 220.8 280.882C220.781 280.928 220.771 280.977 220.771 281.026V282.921H215.146V281.026C215.146 280.977 215.136 280.928 215.117 280.882C215.098 280.837 215.071 280.795 215.036 280.76C215.001 280.726 214.96 280.698 214.914 280.679C214.869 280.66 214.82 280.65 214.771 280.65H205.77C205.72 280.65 205.672 280.66 205.626 280.679C205.581 280.698 205.539 280.726 205.504 280.76C205.47 280.795 205.442 280.837 205.423 280.882C205.404 280.928 205.395 280.977 205.395 281.026V282.921H199.769V281.026C199.769 280.977 199.759 280.928 199.741 280.882C199.722 280.837 199.694 280.795 199.659 280.76C199.624 280.726 199.583 280.698 199.538 280.679C199.492 280.66 199.443 280.65 199.394 280.65H128.887C128.838 280.65 128.789 280.66 128.743 280.679C128.698 280.698 128.657 280.726 128.622 280.76C128.587 280.795 128.559 280.837 128.54 280.882C128.522 280.928 128.512 280.977 128.512 281.026V282.921H122.886V281.026C122.886 280.977 122.877 280.928 122.858 280.882C122.839 280.837 122.811 280.795 122.776 280.76C122.742 280.726 122.7 280.698 122.655 280.679C122.609 280.66 122.561 280.65 122.511 280.65H113.51C113.461 280.65 113.412 280.66 113.367 280.679C113.321 280.698 113.28 280.726 113.245 280.76C113.21 280.795 113.183 280.837 113.164 280.882C113.145 280.928 113.135 280.977 113.135 281.026V282.921H107.51V281.026C107.51 280.977 107.5 280.928 107.481 280.882C107.462 280.837 107.435 280.795 107.4 280.76C107.365 280.726 107.324 280.698 107.278 280.679C107.233 280.66 107.184 280.65 107.135 280.65H98.1338C98.0846 280.65 98.0358 280.66 97.9903 280.679C97.9448 280.698 97.9035 280.726 97.8687 280.76C97.8338 280.795 97.8062 280.837 97.7874 280.882C97.7685 280.928 97.7588 280.977 97.7588 281.026V282.921H92.1332V281.026C92.1332 280.977 92.1235 280.928 92.1047 280.882C92.0859 280.837 92.0582 280.795 92.0234 280.76C91.9886 280.726 91.9472 280.698 91.9017 280.679C91.8562 280.66 91.8075 280.65 91.7582 280.65H82.7573C82.7081 280.65 82.6593 280.66 82.6138 280.679C82.5683 280.698 82.527 280.726 82.4921 280.76C82.4573 280.795 82.4297 280.837 82.4108 280.882C82.392 280.928 82.3823 280.977 82.3823 281.026V282.921H76.7567V281.026C76.7567 280.977 76.747 280.928 76.7282 280.882C76.7093 280.837 76.6817 280.795 76.6469 280.76C76.612 280.726 76.5707 280.698 76.5252 280.679C76.4797 280.66 76.4309 280.65 76.3817 280.65H67.3807C67.3315 280.65 67.2827 280.66 67.2372 280.679C67.1917 280.698 67.1504 280.726 67.1156 280.76C67.0807 280.795 67.0531 280.837 67.0343 280.882C67.0154 280.928 67.0057 280.977 67.0057 281.026V282.921H61.3802V281.026C61.3802 280.977 61.3705 280.928 61.3516 280.882C61.3328 280.837 61.3052 280.795 61.2703 280.76C61.2355 280.726 61.1942 280.698 61.1487 280.679C61.1032 280.66 61.0544 280.65 61.0051 280.65H52.0042C51.955 280.65 51.9062 280.66 51.8607 280.679C51.8152 280.698 51.7739 280.726 51.739 280.76C51.7042 280.795 51.6766 280.837 51.6577 280.882C51.6389 280.928 51.6292 280.977 51.6292 281.026V282.921H46.0036V281.026C46.0036 280.977 45.9939 280.928 45.9751 280.882C45.9562 280.837 45.9286 280.795 45.8938 280.76C45.8589 280.726 45.8176 280.698 45.7721 280.679C45.7266 280.66 45.6778 280.65 45.6286 280.65H36.6277C36.5784 280.65 36.5297 280.66 36.4842 280.679C36.4386 280.698 36.3973 280.726 36.3625 280.76C36.3277 280.795 36.3 280.837 36.2812 280.882C36.2623 280.928 36.2526 280.977 36.2526 281.026V282.921H19.0009C17.8189 282.921 16.6484 283.154 15.5564 283.607C14.4644 284.061 13.4721 284.725 12.6363 285.562C11.8005 286.4 11.1375 287.394 10.6852 288.488C10.2328 289.582 10 290.754 10 291.939V296.016C10 298.408 10.9483 300.701 12.6363 302.392C14.3243 304.083 16.6137 305.033 19.0009 305.033H318.281C319.463 305.033 320.633 304.8 321.725 304.347C322.817 303.894 323.81 303.23 324.646 302.392C325.481 301.555 326.144 300.561 326.597 299.467C327.049 298.373 327.282 297.2 327.282 296.016V291.939C327.282 290.754 327.049 289.582 326.597 288.488C326.144 287.394 325.481 286.4 324.646 285.562C323.81 284.725 322.817 284.061 321.725 283.607C320.633 283.154 319.463 282.921 318.281 282.921Z" fill="#3F3D56"/>
<path d="M236.227 234.139H95.6509C95.2274 234.138 94.8213 233.969 94.5219 233.669C94.2224 233.369 94.0539 232.962 94.0535 232.538V173.857C94.0539 173.433 94.2224 173.026 94.5219 172.726C94.8213 172.426 95.2274 172.257 95.6509 172.257H236.227C236.65 172.257 237.057 172.426 237.356 172.726C237.655 173.026 237.824 173.433 237.824 173.857V232.538C237.824 232.962 237.655 233.369 237.356 233.669C237.057 233.969 236.65 234.138 236.227 234.139ZM95.6509 173.324C95.5098 173.324 95.3744 173.38 95.2746 173.48C95.1748 173.58 95.1186 173.716 95.1184 173.857V232.538C95.1186 232.68 95.1748 232.815 95.2746 232.915C95.3744 233.015 95.5098 233.071 95.6509 233.072H236.227C236.368 233.071 236.503 233.015 236.603 232.915C236.703 232.815 236.759 232.68 236.759 232.538V173.857C236.759 173.716 236.703 173.58 236.603 173.48C236.503 173.38 236.368 173.324 236.227 173.324H95.6509Z" fill="#3F3D56"/>
<path d="M111.625 206.398H105.236C104.812 206.398 104.406 206.229 104.107 205.929C103.807 205.629 103.639 205.222 103.638 204.798V198.397C103.639 197.972 103.807 197.565 104.107 197.265C104.406 196.965 104.812 196.797 105.236 196.796H111.625C112.049 196.797 112.455 196.965 112.755 197.265C113.054 197.565 113.222 197.972 113.223 198.397V204.798C113.222 205.222 113.054 205.629 112.755 205.929C112.455 206.229 112.049 206.398 111.625 206.398ZM105.236 197.863C105.094 197.863 104.959 197.92 104.859 198.02C104.759 198.12 104.703 198.255 104.703 198.397V204.798C104.703 204.94 104.759 205.075 104.859 205.175C104.959 205.275 105.094 205.331 105.236 205.332H111.625C111.767 205.331 111.902 205.275 112.002 205.175C112.102 205.075 112.158 204.94 112.158 204.798V198.397C112.158 198.255 112.102 198.12 112.002 198.02C111.902 197.92 111.767 197.863 111.625 197.863H105.236Z" fill="#3F3D56"/>
<path d="M225.577 205.332H104.171V206.398H225.577V205.332Z" fill="#3F3D56"/>
<path d="M541.341 261.879H151.029V262.946H541.341V261.879Z" fill="#3F3D56"/>
<path d="M151.029 269.347C155.146 269.347 158.484 266.003 158.484 261.879C158.484 257.754 155.146 254.41 151.029 254.41C146.912 254.41 143.575 257.754 143.575 261.879C143.575 266.003 146.912 269.347 151.029 269.347Z" fill="#3F3D56"/>
<path d="M541.341 268.814C544.576 268.814 547.198 266.186 547.198 262.946C547.198 259.705 544.576 257.077 541.341 257.077C538.106 257.077 535.483 259.705 535.483 262.946C535.483 266.186 538.106 268.814 541.341 268.814Z" fill="#3F3D56"/>
<path d="M570.095 386.709C573.33 386.709 575.952 384.082 575.952 380.841C575.952 377.6 573.33 374.973 570.095 374.973C566.86 374.973 564.238 377.6 564.238 380.841C564.238 384.082 566.86 386.709 570.095 386.709Z" fill="#3F3D56"/>
<path d="M181.381 386.709C184.616 386.709 187.238 384.082 187.238 380.841C187.238 377.6 184.616 374.973 181.381 374.973C178.146 374.973 175.524 377.6 175.524 380.841C175.524 384.082 178.146 386.709 181.381 386.709Z" fill="#3F3D56"/>
</g>
<defs>
<radialGradient id="paint0_radial_8_341" cx="0" cy="0" r="1" gradientUnits="userSpaceOnUse" gradientTransform="translate(303 303) rotate(90) scale(303)">
<stop stop-color="#444CE7" stop-opacity="0.81"/>
<stop offset="1" stop-color="#444CE7" stop-opacity="0.29"/>
</radialGradient>
<linearGradient id="paint1_linear_8_341" x1="175.047" y1="1.87602e-06" x2="360.757" y2="597.559" gradientUnits="userSpaceOnUse">
<stop stop-color="#444CE7" stop-opacity="0.81"/>
<stop offset="1" stop-opacity="0"/>
</linearGradient>
<radialGradient id="paint2_radial_8_341" cx="0" cy="0" r="1" gradientUnits="userSpaceOnUse" gradientTransform="translate(303 302) rotate(90) scale(264)">
<stop stop-color="#444CE7" stop-opacity="0.81"/>
<stop offset="1" stop-color="#444CE7" stop-opacity="0.29"/>
</radialGradient>
<linearGradient id="paint3_linear_8_341" x1="303" y1="38" x2="356.333" y2="536.667" gradientUnits="userSpaceOnUse">
<stop stop-color="#A4BCFD"/>
<stop offset="1" stop-color="#444CE7" stop-opacity="0.81"/>
</linearGradient>
<clipPath id="clip0_8_341">
<rect width="586" height="369" fill="white" transform="translate(10 118)"/>
</clipPath>
</defs>
</svg>
