<svg viewBox="0 0 633 606" fill="none" xmlns="http://www.w3.org/2000/svg">
<circle cx="316" cy="303" r="303" fill="url(#paint0_radial_8_343)" fill-opacity="0.2"/>
<circle cx="316" cy="303" r="303" fill="url(#paint1_linear_8_343)" fill-opacity="0.2"/>
<circle cx="316" cy="302" r="264" fill="url(#paint2_radial_8_343)" fill-opacity="0.2"/>
<circle cx="316" cy="302" r="264" fill="url(#paint3_linear_8_343)" fill-opacity="0.2"/>
<g clip-path="url(#clip0_8_343)">
<path d="M126.121 523C195.776 523 252.242 518.706 252.242 513.408C252.242 508.111 195.776 503.817 126.121 503.817C56.4663 503.817 0 508.111 0 513.408C0 518.706 56.4663 523 126.121 523Z" fill="#E6E6E6"/>
<path d="M96.4046 179.85C118.353 170.502 145.691 176.425 172.389 180.536C172.638 175.558 175.649 169.499 172.495 166.026C168.662 161.807 169.015 157.373 171.321 152.914C177.218 141.512 168.769 129.38 160.238 119.292C158.315 117.023 155.885 115.241 153.145 114.089C150.405 112.938 147.433 112.45 144.469 112.664L128.666 113.795C124.82 114.07 121.15 115.514 118.147 117.935C115.144 120.356 112.951 123.637 111.861 127.34C108.087 132.479 106.068 137.603 107.339 142.701C101.687 146.569 100.737 151.238 103.277 156.501C105.431 159.815 105.408 163.04 103.179 166.177C100.252 170.175 98.0106 174.634 96.5459 179.37L96.4046 179.85Z" fill="#2F2E41"/>
<path d="M618 463.237H170.655C166.677 463.237 162.862 461.655 160.049 458.838C157.236 456.022 155.656 452.201 155.656 448.218C317.818 429.346 476.933 429.346 633 448.218C633 452.201 631.42 456.022 628.607 458.838C625.794 461.655 621.978 463.237 618 463.237Z" fill="#2F2E41"/>
<path d="M633 449.101L155.656 448.218L210.978 355.007L211.243 354.565V149.138C211.243 146.645 211.733 144.176 212.686 141.872C213.639 139.569 215.035 137.475 216.796 135.712C218.557 133.949 220.647 132.551 222.948 131.597C225.249 130.642 227.714 130.151 230.204 130.152H555.804C558.294 130.151 560.76 130.642 563.061 131.597C565.361 132.551 567.452 133.949 569.213 135.712C570.973 137.475 572.37 139.569 573.323 141.872C574.276 144.176 574.766 146.645 574.766 149.138V355.979L633 449.101Z" fill="#3F3D56"/>
<path d="M229.772 143.404C228.135 143.406 226.565 144.058 225.407 145.218C224.249 146.377 223.598 147.949 223.596 149.589V336.895C223.598 338.534 224.249 340.106 225.407 341.266C226.565 342.425 228.135 343.077 229.772 343.079H558.884C560.521 343.077 562.091 342.425 563.249 341.266C564.407 340.106 565.058 338.534 565.06 336.895V149.589C565.058 147.949 564.407 146.377 563.249 145.218C562.091 144.059 560.521 143.406 558.884 143.404H229.772Z" fill="white"/>
<path d="M231.151 367.818C230.645 367.818 230.15 367.964 229.724 368.238C229.298 368.511 228.959 368.9 228.746 369.36L211.7 406.468C211.514 406.872 211.433 407.316 211.464 407.759C211.494 408.203 211.636 408.631 211.875 409.006C212.115 409.38 212.444 409.688 212.834 409.901C213.223 410.115 213.66 410.226 214.104 410.226H572.585C573.036 410.226 573.48 410.111 573.874 409.891C574.268 409.671 574.599 409.354 574.836 408.969C575.074 408.585 575.209 408.146 575.229 407.695C575.249 407.244 575.154 406.794 574.952 406.39L556.423 369.283C556.204 368.842 555.867 368.471 555.448 368.212C555.03 367.953 554.548 367.816 554.056 367.818H231.151Z" fill="#2F2E41"/>
<path d="M393.004 140.312C395.197 140.312 396.975 138.532 396.975 136.336C396.975 134.14 395.197 132.36 393.004 132.36C390.811 132.36 389.034 134.14 389.034 136.336C389.034 138.532 390.811 140.312 393.004 140.312Z" fill="white"/>
<path d="M357.769 417.295C357.187 417.295 356.621 417.488 356.159 417.842C355.698 418.197 355.365 418.693 355.213 419.256L350.937 435.159C350.831 435.552 350.817 435.964 350.896 436.363C350.975 436.762 351.145 437.138 351.392 437.461C351.639 437.784 351.957 438.045 352.321 438.225C352.685 438.405 353.086 438.499 353.493 438.499H434.812C435.234 438.499 435.65 438.398 436.025 438.204C436.4 438.011 436.723 437.73 436.968 437.386C437.213 437.041 437.372 436.644 437.432 436.225C437.492 435.807 437.451 435.381 437.313 434.981L431.815 419.078C431.635 418.557 431.297 418.106 430.849 417.786C430.401 417.467 429.864 417.295 429.314 417.295H357.769Z" fill="#2F2E41"/>
<path d="M574.766 351.473V355.006H210.978L211.252 354.565V351.473H574.766Z" fill="#2F2E41"/>
<path d="M564.619 205.692C598.73 205.692 626.382 178.003 626.382 143.846C626.382 109.689 598.73 82 564.619 82C530.508 82 502.855 109.689 502.855 143.846C502.855 178.003 530.508 205.692 564.619 205.692Z" fill="#A4BCFD"/>
<path d="M590.207 170.793H539.031C538.095 170.793 537.198 170.42 536.536 169.757C535.875 169.095 535.503 168.196 535.502 167.259V136.336C535.503 135.399 535.875 134.501 536.537 133.838C537.198 133.176 538.095 132.803 539.031 132.802H590.207C591.142 132.803 592.039 133.176 592.701 133.838C593.363 134.501 593.735 135.399 593.736 136.336V167.259C593.735 168.196 593.363 169.095 592.701 169.757C592.039 170.42 591.142 170.793 590.207 170.793ZM539.031 136.336V167.259H590.209L590.207 136.336L539.031 136.336Z" fill="white"/>
<path d="M580.501 136.336H548.737V122.2C548.737 111.961 555.416 104.53 564.619 104.53C573.821 104.53 580.501 111.961 580.501 122.2L580.501 136.336ZM552.266 132.802H576.972V122.2C576.972 113.877 571.892 108.064 564.619 108.064C557.346 108.064 552.266 113.877 552.266 122.2L552.266 132.802Z" fill="white"/>
<path d="M564.619 154.448C566.568 154.448 568.148 152.866 568.148 150.914C568.148 148.962 566.568 147.38 564.619 147.38C562.67 147.38 561.09 148.962 561.09 150.914C561.09 152.866 562.67 154.448 564.619 154.448Z" fill="white"/>
<path d="M521.503 279.547H267.153C265.904 279.546 264.707 279.048 263.824 278.164C262.941 277.28 262.445 276.081 262.443 274.831V211.653C262.445 210.403 262.941 209.204 263.824 208.32C264.707 207.435 265.904 206.938 267.153 206.936H521.503C522.751 206.938 523.949 207.435 524.832 208.32C525.715 209.204 526.211 210.403 526.213 211.653V274.831C526.211 276.081 525.715 277.28 524.832 278.164C523.949 279.048 522.751 279.546 521.503 279.547ZM267.153 208.823C266.404 208.824 265.686 209.122 265.156 209.653C264.626 210.183 264.328 210.903 264.327 211.653V274.831C264.328 275.581 264.626 276.3 265.156 276.831C265.686 277.361 266.404 277.66 267.153 277.66H521.503C522.252 277.66 522.97 277.361 523.5 276.831C524.03 276.3 524.328 275.581 524.329 274.831V211.653C524.328 210.903 524.03 210.183 523.5 209.653C522.97 209.122 522.252 208.824 521.503 208.823L267.153 208.823Z" fill="#E6E6E6"/>
<path d="M306.674 260.03C317.27 260.03 325.861 251.428 325.861 240.818C325.861 230.207 317.27 221.605 306.674 221.605C296.077 221.605 287.487 230.207 287.487 240.818C287.487 251.428 296.077 260.03 306.674 260.03Z" fill="#E6E6E6"/>
<path d="M350.986 228.009C350.566 228.009 350.149 228.091 349.761 228.252C349.372 228.412 349.019 228.648 348.722 228.945C348.424 229.243 348.188 229.596 348.027 229.985C347.866 230.374 347.783 230.791 347.783 231.211C347.783 231.632 347.866 232.049 348.027 232.438C348.188 232.827 348.424 233.18 348.722 233.477C349.019 233.775 349.372 234.011 349.761 234.171C350.149 234.332 350.566 234.414 350.986 234.414H501.739C502.587 234.414 503.4 234.076 504 233.476C504.6 232.875 504.937 232.061 504.937 231.211C504.937 230.362 504.6 229.548 504 228.947C503.4 228.347 502.587 228.009 501.739 228.009H350.986Z" fill="#E6E6E6"/>
<path d="M350.986 247.222C350.138 247.222 349.325 247.559 348.725 248.16C348.125 248.76 347.788 249.575 347.788 250.424C347.788 251.273 348.125 252.088 348.725 252.688C349.325 253.289 350.138 253.626 350.986 253.626H415.855C416.704 253.626 417.517 253.289 418.117 252.688C418.716 252.088 419.053 251.273 419.053 250.424C419.053 249.575 418.716 248.76 418.117 248.16C417.517 247.559 416.704 247.222 415.855 247.222H350.986Z" fill="#E6E6E6"/>
<path d="M210.352 248.517L163.334 273.548L162.739 252.689C178.085 250.124 192.686 245.657 206.186 238.386L211.104 226.22C211.64 224.895 212.51 223.731 213.631 222.845C214.751 221.958 216.083 221.378 217.495 221.162C218.906 220.946 220.35 221.102 221.684 221.613C223.017 222.125 224.195 222.975 225.102 224.08C226.428 225.697 227.091 227.758 226.957 229.846C226.822 231.934 225.9 233.893 224.377 235.325L210.352 248.517Z" fill="#FFB8B8"/>
<path d="M95.4674 393.035C95.1244 391.775 95.0516 390.457 95.2537 389.167C95.4559 387.877 95.9284 386.645 96.6403 385.551L106.969 369.678C109.412 365.924 113.16 363.212 117.487 362.069C121.814 360.926 126.411 361.433 130.385 363.492C126.044 370.891 126.649 377.382 131.884 383.022C123.758 386.995 116.247 392.122 109.585 398.245C108.368 399.075 106.972 399.602 105.511 399.783C104.05 399.963 102.567 399.791 101.186 399.281C99.8045 398.771 98.5649 397.939 97.5703 396.852C96.5756 395.766 95.8546 394.457 95.4674 393.035Z" fill="#2F2E41"/>
<path d="M212.494 372.281C210.931 374.89 208.725 377.052 206.087 378.561C203.449 380.069 200.468 380.874 197.43 380.897L128.814 381.417L125.838 364.134L156.192 355.195L130.6 335.528L158.572 302.75L209.38 350.168C212.35 352.939 214.279 356.648 214.846 360.673C215.413 364.698 214.582 368.796 212.494 372.281Z" fill="#2F2E41"/>
<path d="M118.101 490.479H102.031C87.6032 391.448 72.9167 292.139 116.315 255.073L167.5 263.416L160.953 306.922L132.385 339.7L118.101 490.479Z" fill="#2F2E41"/>
<path d="M132.227 512.913C130.969 513.257 129.653 513.33 128.364 513.127C127.076 512.925 125.845 512.452 124.753 511.739L107.305 509.391C103.555 506.945 100.847 503.191 99.7052 498.859C98.5635 494.526 99.0696 489.923 101.125 485.943C108.515 490.29 114.996 489.683 120.629 484.441C124.609 492.488 131.167 491.997 137.429 498.777C138.258 499.994 138.785 501.393 138.965 502.856C139.145 504.319 138.974 505.804 138.465 507.187C137.956 508.57 137.124 509.811 136.039 510.807C134.954 511.803 133.647 512.525 132.227 512.913Z" fill="#2F2E41"/>
<path d="M156.192 188.92L126.433 181.769C131.376 171.639 131.783 160.367 129.409 148.395L149.645 147.799C150.279 162.686 152.197 176.595 156.192 188.92Z" fill="#FFB8B8"/>
<path d="M164.371 281.36C142.707 296.142 127.401 281.866 115.72 259.84C117.343 246.363 114.715 230.234 109.848 212.709C107.683 204.979 108.491 196.717 112.113 189.555C115.734 182.392 121.906 176.85 129.409 174.021L155.001 184.749C176.732 202.486 181.01 221.698 172.857 241.961L164.371 281.36Z" fill="#A4BCFD"/>
<path d="M102.031 203.82L78.2245 216.335L120.482 241.365L126.361 255.888C126.754 256.858 126.945 257.897 126.923 258.943C126.902 259.988 126.667 261.019 126.235 261.971C125.803 262.923 125.181 263.777 124.408 264.481C123.636 265.184 122.728 265.723 121.74 266.064C120.618 266.452 119.421 266.574 118.243 266.421C117.066 266.268 115.94 265.844 114.953 265.183C113.966 264.521 113.146 263.64 112.556 262.608C111.966 261.576 111.623 260.422 111.554 259.235L110.959 249.113L57.2506 231.366C55.4411 230.768 53.7911 229.765 52.4258 228.434C51.0604 227.103 50.0154 225.478 49.3699 223.683C48.4291 221.066 48.3812 218.211 49.2338 215.564C50.0863 212.917 51.7912 210.627 54.0816 209.054L97.27 179.385L102.031 203.82Z" fill="#FFB8B8"/>
<path d="M125.838 206.204C115.909 201.846 106.881 206.58 95.4845 210.375L93.699 178.789C105.015 172.75 115.804 171.121 125.838 175.809L125.838 206.204Z" fill="#A4BCFD"/>
<path d="M137.715 163.445C148.209 163.445 156.715 154.927 156.715 144.419C156.715 133.912 148.209 125.394 137.715 125.394C127.222 125.394 118.716 133.912 118.716 144.419C118.716 154.927 127.222 163.445 137.715 163.445Z" fill="#FFB8B8"/>
<path d="M160.445 142.019C141.634 143.864 127.3 140.783 118.139 132.012V124.948H158.849L160.445 142.019Z" fill="#2F2E41"/>
</g>
<defs>
<radialGradient id="paint0_radial_8_343" cx="0" cy="0" r="1" gradientUnits="userSpaceOnUse" gradientTransform="translate(316 303) rotate(90) scale(303)">
<stop stop-color="#444CE7" stop-opacity="0.81"/>
<stop offset="1" stop-color="#444CE7" stop-opacity="0.29"/>
</radialGradient>
<linearGradient id="paint1_linear_8_343" x1="188.047" y1="1.87602e-06" x2="373.757" y2="597.559" gradientUnits="userSpaceOnUse">
<stop stop-color="#444CE7" stop-opacity="0.81"/>
<stop offset="1" stop-opacity="0"/>
</linearGradient>
<radialGradient id="paint2_radial_8_343" cx="0" cy="0" r="1" gradientUnits="userSpaceOnUse" gradientTransform="translate(316 302) rotate(90) scale(264)">
<stop stop-color="#444CE7" stop-opacity="0.81"/>
<stop offset="1" stop-color="#444CE7" stop-opacity="0.29"/>
</radialGradient>
<linearGradient id="paint3_linear_8_343" x1="316" y1="38" x2="369.333" y2="536.667" gradientUnits="userSpaceOnUse">
<stop stop-color="#A4BCFD"/>
<stop offset="1" stop-color="#444CE7" stop-opacity="0.81"/>
</linearGradient>
<clipPath id="clip0_8_343">
<rect width="633" height="441" fill="white" transform="translate(0 82)"/>
</clipPath>
</defs>
</svg>
