<svg viewBox="0 0 606 606" fill="none" xmlns="http://www.w3.org/2000/svg">
<circle cx="303" cy="303" r="303" fill="url(#paint0_radial_8_342)" fill-opacity="0.2"/>
<circle cx="303" cy="303" r="303" fill="url(#paint1_linear_8_342)" fill-opacity="0.2"/>
<circle cx="303" cy="302" r="264" fill="url(#paint2_radial_8_342)" fill-opacity="0.2"/>
<circle cx="303" cy="302" r="264" fill="url(#paint3_linear_8_342)" fill-opacity="0.2"/>
<g clip-path="url(#clip0_8_342)">
<path d="M218.796 399.973C301.76 399.973 369.016 332.786 369.016 249.907C369.016 167.028 301.76 99.8408 218.796 99.8408C135.831 99.8408 68.5753 167.028 68.5753 249.907C68.5753 332.786 135.831 399.973 218.796 399.973Z" fill="#F2F2F2"/>
<path d="M393.015 395.533C408.725 395.533 421.46 382.811 421.46 367.118C421.46 351.425 408.725 338.703 393.015 338.703C377.306 338.703 364.571 351.425 364.571 367.118C364.571 382.811 377.306 395.533 393.015 395.533Z" fill="#F2F2F2"/>
<path d="M536.125 459.467C542.507 459.467 547.68 454.298 547.68 447.923C547.68 441.548 542.507 436.38 536.125 436.38C529.743 436.38 524.569 441.548 524.569 447.923C524.569 454.298 529.743 459.467 536.125 459.467Z" fill="#F2F2F2"/>
<path d="M338.882 443.487C267.084 443.49 204.615 389.985 195.386 317.007L197.15 316.785C206.264 388.862 267.973 441.707 338.883 441.711C344.908 441.711 350.927 441.331 356.904 440.575C435.113 430.705 490.702 359.114 480.822 280.986L482.586 280.763C492.588 359.862 436.308 432.345 357.127 442.337C351.076 443.102 344.982 443.486 338.882 443.487Z" fill="#3F3D56"/>
<path d="M342.737 473.188H314.468C313.864 473.189 313.267 473.054 312.723 472.792C312.179 472.53 311.701 472.149 311.326 471.676C310.955 471.216 310.693 470.677 310.56 470.101C310.428 469.525 310.427 468.926 310.559 468.35C313.242 456.523 313.083 444.23 310.097 432.476C309.893 431.664 309.951 430.808 310.262 430.031C310.574 429.254 311.123 428.595 311.831 428.148C321.611 422.096 332.26 422.285 344.389 428.727C344.94 429.017 345.417 429.43 345.782 429.935C346.147 430.439 346.391 431.021 346.494 431.635C348.502 444.256 348.573 457.108 346.702 469.75C346.569 470.705 346.094 471.58 345.365 472.212C344.636 472.844 343.703 473.191 342.737 473.188Z" fill="#A4BCFD"/>
<path d="M213.85 322.234H185.581C184.977 322.235 184.38 322.1 183.836 321.838C183.292 321.576 182.814 321.195 182.439 320.722C182.068 320.262 181.806 319.723 181.673 319.147C181.54 318.571 181.54 317.972 181.672 317.396C184.364 305.528 184.195 293.191 181.178 281.401C180.988 280.625 181.034 279.81 181.311 279.06C181.588 278.31 182.083 277.66 182.733 277.194C197.27 266.75 208.718 267.053 216.759 278.096C217.122 278.6 217.362 279.18 217.463 279.792C219.611 292.696 219.73 305.856 217.815 318.796C217.682 319.751 217.207 320.626 216.478 321.258C215.749 321.89 214.815 322.237 213.85 322.234Z" fill="#CCCCCC"/>
<path d="M329.529 446.683H319.804C319.267 446.682 318.752 446.468 318.373 446.089C317.994 445.709 317.781 445.194 317.781 444.658C317.781 444.121 317.994 443.607 318.373 443.227C318.752 442.847 319.267 442.633 319.804 442.632H329.529C330.067 442.632 330.582 442.846 330.963 443.225C331.343 443.605 331.556 444.121 331.556 444.658C331.556 445.195 331.343 445.71 330.963 446.09C330.582 446.47 330.067 446.683 329.529 446.683Z" fill="white"/>
<path d="M341.419 454.687H319.804C319.267 454.686 318.752 454.472 318.373 454.092C317.994 453.712 317.781 453.198 317.781 452.661C317.781 452.125 317.994 451.61 318.373 451.231C318.752 450.851 319.267 450.637 319.804 450.636H341.419C341.956 450.637 342.471 450.851 342.85 451.231C343.23 451.61 343.443 452.125 343.443 452.661C343.443 453.198 343.23 453.712 342.85 454.092C342.471 454.472 341.956 454.686 341.419 454.687Z" fill="white"/>
<path d="M205.086 293.953H195.361C194.824 293.952 194.31 293.738 193.93 293.359C193.551 292.979 193.338 292.464 193.338 291.928C193.338 291.391 193.551 290.877 193.93 290.497C194.31 290.117 194.824 289.903 195.361 289.902H205.086C205.623 289.903 206.138 290.117 206.517 290.497C206.896 290.877 207.109 291.391 207.109 291.928C207.109 292.464 206.896 292.979 206.517 293.359C206.138 293.738 205.623 293.952 205.086 293.953Z" fill="white"/>
<path d="M205.086 301.057H195.361C194.824 301.056 194.31 300.842 193.93 300.462C193.551 300.083 193.338 299.568 193.338 299.032C193.338 298.495 193.551 297.98 193.93 297.601C194.31 297.221 194.824 297.007 195.361 297.006H205.086C205.623 297.007 206.138 297.221 206.517 297.601C206.896 297.98 207.109 298.495 207.109 299.032C207.109 299.568 206.896 300.083 206.517 300.462C206.138 300.842 205.623 301.056 205.086 301.057Z" fill="white"/>
<path d="M205.086 308.161H195.361C194.824 308.16 194.31 307.946 193.93 307.566C193.551 307.186 193.338 306.672 193.338 306.135C193.338 305.599 193.551 305.084 193.93 304.704C194.31 304.325 194.824 304.111 195.361 304.11H205.086C205.623 304.111 206.138 304.325 206.517 304.704C206.896 305.084 207.109 305.599 207.109 306.135C207.109 306.672 206.896 307.186 206.517 307.566C206.138 307.946 205.623 308.16 205.086 308.161Z" fill="white"/>
<path d="M594.327 355.598H503.959C501.537 355.595 499.215 354.632 497.503 352.922C495.79 351.211 494.827 348.892 494.824 346.472V290.871C494.827 288.452 495.79 286.132 497.503 284.422C499.215 282.711 501.537 281.749 503.959 281.746H594.327C596.749 281.749 599.071 282.711 600.783 284.422C602.496 286.132 603.459 288.452 603.462 290.871V346.472C603.459 348.892 602.496 351.211 600.783 352.922C599.071 354.633 596.749 355.595 594.327 355.598Z" fill="#E6E6E6"/>
<path d="M558.422 348.436H510.311C508.043 348.433 505.869 347.532 504.265 345.93C502.661 344.328 501.758 342.155 501.756 339.89V297.454C501.758 295.188 502.661 293.016 504.265 291.413C505.869 289.811 508.043 288.91 510.311 288.907H587.975C590.243 288.91 592.417 289.811 594.021 291.413C595.625 293.016 596.527 295.188 596.53 297.454V310.368C596.518 320.461 592.5 330.137 585.356 337.273C578.212 344.41 568.525 348.424 558.422 348.436Z" fill="white"/>
<path d="M580.227 312.144H518.059C517.521 312.144 517.005 311.931 516.625 311.551C516.245 311.171 516.031 310.656 516.031 310.119C516.031 309.582 516.245 309.067 516.625 308.687C517.005 308.307 517.521 308.094 518.059 308.094H580.227C580.765 308.094 581.281 308.307 581.661 308.687C582.041 309.067 582.255 309.582 582.255 310.119C582.255 310.656 582.041 311.171 581.661 311.551C581.281 311.931 580.765 312.144 580.227 312.144Z" fill="#A4BCFD"/>
<path d="M527.783 320.148H518.059C517.522 320.147 517.007 319.933 516.628 319.553C516.248 319.173 516.035 318.659 516.035 318.122C516.035 317.586 516.248 317.071 516.628 316.692C517.007 316.312 517.522 316.098 518.059 316.097H527.783C528.32 316.098 528.835 316.312 529.214 316.692C529.594 317.071 529.807 317.586 529.807 318.122C529.807 318.659 529.594 319.173 529.214 319.553C528.835 319.933 528.32 320.147 527.783 320.148Z" fill="#A4BCFD"/>
<path d="M545.007 328.151H518.059C517.521 328.151 517.005 327.938 516.625 327.558C516.245 327.178 516.031 326.663 516.031 326.126C516.031 325.589 516.245 325.073 516.625 324.694C517.005 324.314 517.521 324.1 518.059 324.1H545.007C545.545 324.1 546.061 324.314 546.441 324.694C546.821 325.073 547.035 325.589 547.035 326.126C547.035 326.663 546.821 327.178 546.441 327.558C546.061 327.938 545.545 328.151 545.007 328.151Z" fill="#A4BCFD"/>
<path d="M491.671 299.735C502.228 299.735 510.787 291.185 510.787 280.638C510.787 270.092 502.228 261.542 491.671 261.542C481.113 261.542 472.554 270.092 472.554 280.638C472.554 291.185 481.113 299.735 491.671 299.735Z" fill="#3F3D56"/>
<path d="M275.273 135.368C276.539 128.952 279.057 122.847 282.684 117.402C286.312 111.958 290.977 107.28 296.414 103.637C307.394 96.2783 320.851 93.5788 333.823 96.1319C340.247 97.3961 346.358 99.9118 351.808 103.535C357.258 107.159 361.941 111.819 365.588 117.251C369.235 122.682 371.776 128.778 373.065 135.19C374.354 141.602 374.366 148.205 373.1 154.622L371.355 154.279C373.82 141.781 371.214 128.818 364.111 118.24C357.008 107.663 345.99 100.337 333.48 97.8749C320.97 95.4128 307.993 98.0159 297.405 105.112C286.816 112.207 279.483 123.215 277.018 135.712L275.273 135.368Z" fill="#3F3D56"/>
<path d="M294.205 166.788L265.959 167.957C265.356 167.983 264.754 167.873 264.2 167.634C263.645 167.395 263.152 167.033 262.757 166.576C262.368 166.132 262.084 165.604 261.927 165.034C261.771 164.464 261.745 163.866 261.853 163.285C264.021 151.478 263.389 139.328 260.009 127.808C259.748 126.927 259.801 125.983 260.159 125.137C260.517 124.291 261.157 123.595 261.971 123.167C273.541 117.163 284.381 116.858 294.189 122.261C294.703 122.54 295.15 122.928 295.499 123.397C295.848 123.866 296.09 124.406 296.209 124.978C298.762 137.548 299.374 150.435 298.024 163.19C297.93 164.149 297.492 165.043 296.79 165.705C296.087 166.366 295.169 166.751 294.205 166.788Z" fill="#A4BCFD"/>
<path d="M293.009 148.321L271.412 149.214C271.146 149.226 270.88 149.184 270.63 149.093C270.38 149.002 270.15 148.862 269.954 148.682C269.758 148.502 269.599 148.285 269.487 148.043C269.375 147.802 269.312 147.541 269.301 147.275C269.29 147.009 269.331 146.743 269.423 146.493C269.515 146.243 269.655 146.014 269.835 145.818C270.016 145.623 270.233 145.464 270.475 145.353C270.717 145.241 270.978 145.178 271.245 145.167L292.841 144.273C293.107 144.262 293.373 144.304 293.623 144.395C293.873 144.487 294.103 144.627 294.298 144.807C294.494 144.987 294.653 145.204 294.765 145.445C294.877 145.687 294.94 145.948 294.951 146.213C294.962 146.479 294.921 146.744 294.829 146.994C294.737 147.244 294.597 147.473 294.417 147.669C294.237 147.865 294.02 148.023 293.778 148.135C293.536 148.247 293.275 148.31 293.009 148.321Z" fill="white"/>
<path d="M292.715 141.223L271.118 142.117C270.581 142.139 270.057 141.947 269.661 141.583C269.265 141.22 269.031 140.714 269.008 140.177C268.986 139.64 269.178 139.117 269.542 138.721C269.907 138.326 270.413 138.091 270.95 138.069L292.547 137.176C293.084 137.153 293.609 137.345 294.004 137.709C294.4 138.073 294.635 138.579 294.657 139.116C294.679 139.652 294.487 140.176 294.123 140.571C293.759 140.966 293.252 141.201 292.715 141.223Z" fill="white"/>
<path d="M479.053 157.852H388.685C386.263 157.849 383.942 156.887 382.229 155.176C380.517 153.465 379.553 151.146 379.551 148.726V93.1254C379.553 90.7061 380.517 88.3866 382.229 86.6758C383.942 84.965 386.263 84.0027 388.685 84H479.053C481.475 84.0027 483.797 84.965 485.509 86.6758C487.222 88.3865 488.185 90.706 488.188 93.1254V148.726C488.185 151.146 487.222 153.465 485.509 155.176C483.797 156.887 481.475 157.849 479.053 157.852Z" fill="#E6E6E6"/>
<path d="M443.149 150.69H395.038C392.769 150.687 390.595 149.786 388.991 148.184C387.387 146.582 386.485 144.41 386.482 142.144V99.7079C386.485 97.442 387.387 95.2697 388.991 93.6676C390.595 92.0654 392.769 91.1642 395.038 91.1617H472.701C474.969 91.1642 477.144 92.0654 478.748 93.6676C480.351 95.2698 481.254 97.4421 481.256 99.7079V112.622C481.245 122.715 477.226 132.391 470.082 139.528C462.938 146.664 453.252 150.679 443.149 150.69Z" fill="white"/>
<path d="M464.953 114.399H402.785C402.247 114.399 401.732 114.185 401.351 113.805C400.971 113.425 400.757 112.91 400.757 112.373C400.757 111.836 400.971 111.321 401.351 110.941C401.732 110.561 402.247 110.348 402.785 110.348H464.953C465.491 110.348 466.007 110.561 466.387 110.941C466.767 111.321 466.981 111.836 466.981 112.373C466.981 112.91 466.767 113.425 466.387 113.805C466.007 114.185 465.491 114.399 464.953 114.399Z" fill="#A4BCFD"/>
<path d="M412.51 122.402H402.785C402.248 122.401 401.733 122.187 401.354 121.807C400.975 121.428 400.762 120.913 400.762 120.377C400.762 119.84 400.975 119.326 401.354 118.946C401.733 118.566 402.248 118.352 402.785 118.351H412.51C413.047 118.352 413.561 118.566 413.941 118.946C414.32 119.326 414.533 119.84 414.533 120.377C414.533 120.913 414.32 121.428 413.941 121.807C413.561 122.187 413.047 122.401 412.51 122.402Z" fill="#A4BCFD"/>
<path d="M429.734 130.406H402.785C402.247 130.406 401.731 130.192 401.351 129.812C400.971 129.432 400.757 128.917 400.757 128.38C400.757 127.843 400.971 127.328 401.351 126.948C401.731 126.568 402.247 126.355 402.785 126.355H429.734C430.271 126.356 430.785 126.57 431.165 126.949C431.544 127.329 431.757 127.844 431.757 128.38C431.757 128.917 431.544 129.431 431.165 129.811C430.785 130.191 430.271 130.404 429.734 130.406Z" fill="#A4BCFD"/>
<path d="M390.291 167.477C395.865 158.52 393.114 146.745 384.148 141.177C375.181 135.609 363.394 138.356 357.82 147.313C352.247 156.271 354.997 168.046 363.963 173.614C372.93 179.182 384.717 176.434 390.291 167.477Z" fill="#3F3D56"/>
<path d="M119.401 306.373C111.558 285.661 112.273 262.684 121.388 242.498C130.503 222.312 147.272 206.57 168.005 198.735C188.739 190.9 211.739 191.614 231.945 200.72C252.152 209.826 267.91 226.577 275.753 247.289L274.09 247.918C270.289 237.88 264.546 228.689 257.19 220.869C249.833 213.048 241.007 206.752 231.214 202.339C221.422 197.927 210.855 195.484 200.118 195.15C189.38 194.817 178.682 196.6 168.634 200.397C158.587 204.194 149.386 209.931 141.557 217.28C133.729 224.629 127.426 233.446 123.009 243.229C118.592 253.011 116.146 263.567 115.813 274.293C115.479 285.02 117.264 295.707 121.065 305.744L119.401 306.373Z" fill="#3F3D56"/>
<path d="M192.517 223.67H164.248C163.644 223.671 163.047 223.536 162.503 223.274C161.959 223.012 161.481 222.631 161.106 222.158C160.735 221.697 160.473 221.159 160.34 220.583C160.207 220.007 160.207 219.408 160.339 218.832C163.015 207.033 162.864 194.769 159.897 183.039C159.687 182.209 159.751 181.333 160.081 180.543C160.411 179.752 160.988 179.09 161.726 178.655C171.966 172.7 182.902 172.882 194.228 179.196C194.764 179.488 195.227 179.899 195.58 180.397C195.933 180.894 196.168 181.466 196.266 182.068C198.282 194.704 198.355 207.574 196.482 220.232C196.349 221.187 195.874 222.062 195.145 222.694C194.416 223.326 193.482 223.673 192.517 223.67Z" fill="#A4BCFD"/>
<path d="M179.309 196.277H169.584C169.047 196.276 168.532 196.062 168.153 195.682C167.773 195.303 167.56 194.788 167.56 194.252C167.56 193.715 167.773 193.201 168.153 192.821C168.532 192.441 169.047 192.227 169.584 192.226H179.309C179.846 192.227 180.36 192.441 180.74 192.821C181.119 193.201 181.332 193.715 181.332 194.252C181.332 194.788 181.119 195.303 180.74 195.682C180.36 196.062 179.846 196.276 179.309 196.277Z" fill="white"/>
<path d="M191.199 204.281H169.584C169.046 204.281 168.53 204.067 168.15 203.687C167.77 203.308 167.556 202.792 167.556 202.255C167.556 201.718 167.77 201.203 168.15 200.823C168.53 200.443 169.046 200.23 169.584 200.23H191.199C191.736 200.231 192.251 200.445 192.63 200.824C193.009 201.204 193.222 201.719 193.222 202.255C193.222 202.792 193.009 203.306 192.63 203.686C192.251 204.066 191.736 204.28 191.199 204.281Z" fill="white"/>
<path d="M99.5025 305.254H9.13474C6.71289 305.251 4.39102 304.289 2.67851 302.578C0.96601 300.867 0.0027314 298.548 0 296.128V240.528C0.0027314 238.108 0.96601 235.789 2.67851 234.078C4.39102 232.367 6.71289 231.405 9.13474 231.402H99.5025C101.924 231.405 104.246 232.367 105.959 234.078C107.671 235.789 108.635 238.108 108.637 240.528V296.129C108.635 298.548 107.671 300.867 105.959 302.578C104.246 304.289 101.924 305.251 99.5025 305.254Z" fill="#E6E6E6"/>
<path d="M63.5979 298.092H15.487C13.2188 298.09 11.0442 297.188 9.44032 295.586C7.83642 293.984 6.9342 291.812 6.93158 289.546V247.11C6.9342 244.844 7.83642 242.672 9.44032 241.07C11.0442 239.468 13.2188 238.566 15.487 238.564H93.1505C95.4187 238.566 97.5932 239.468 99.197 241.07C100.801 242.672 101.703 244.844 101.706 247.11V260.024C101.694 270.117 97.6754 279.793 90.5314 286.93C83.3873 294.066 73.7011 298.081 63.5979 298.092Z" fill="white"/>
<path d="M85.4029 261.801H23.2344C22.6966 261.801 22.1809 261.587 21.8007 261.207C21.4205 260.828 21.2068 260.312 21.2068 259.775C21.2068 259.238 21.4205 258.723 21.8007 258.343C22.1809 257.963 22.6966 257.75 23.2344 257.75H85.4029C85.9407 257.75 86.4564 257.963 86.8366 258.343C87.2168 258.723 87.4305 259.238 87.4305 259.775C87.4305 260.312 87.2168 260.828 86.8366 261.207C86.4564 261.587 85.9407 261.801 85.4029 261.801Z" fill="#A4BCFD"/>
<path d="M32.9592 269.804H23.2344C22.6974 269.803 22.1827 269.589 21.8034 269.21C21.424 268.83 21.211 268.315 21.211 267.779C21.211 267.242 21.424 266.728 21.8034 266.348C22.1827 265.968 22.6974 265.754 23.2344 265.753H32.9592C33.4962 265.754 34.0108 265.968 34.3902 266.348C34.7695 266.728 34.9825 267.242 34.9825 267.779C34.9825 268.315 34.7695 268.83 34.3902 269.21C34.0108 269.589 33.4962 269.803 32.9592 269.804Z" fill="#A4BCFD"/>
<path d="M50.1829 277.808H23.2344C22.6974 277.807 22.1827 277.593 21.8034 277.213C21.424 276.833 21.211 276.319 21.211 275.782C21.211 275.246 21.424 274.731 21.8034 274.351C22.1827 273.972 22.6974 273.758 23.2344 273.757H50.1829C50.7207 273.757 51.2364 273.97 51.6167 274.35C51.9969 274.73 52.2106 275.245 52.2106 275.782C52.2106 276.319 51.9969 276.835 51.6167 277.214C51.2364 277.594 50.7207 277.808 50.1829 277.808Z" fill="#A4BCFD"/>
<path d="M135.183 313.103C140.757 304.146 138.006 292.371 129.04 286.803C120.073 281.235 108.286 283.982 102.713 292.94C97.1388 301.897 99.8892 313.672 108.856 319.24C117.822 324.808 129.609 322.06 135.183 313.103Z" fill="#3F3D56"/>
<path d="M289.405 276.948H261.135C260.531 276.949 259.935 276.814 259.391 276.552C258.847 276.29 258.369 275.908 257.993 275.436C257.622 274.975 257.361 274.437 257.228 273.861C257.095 273.285 257.095 272.686 257.226 272.11C259.898 260.331 259.752 248.09 256.8 236.378C256.591 235.536 256.662 234.649 257.002 233.852C257.343 233.054 257.935 232.389 258.688 231.958C272.421 224.105 283.295 224.322 291.932 232.621C292.537 233.213 292.936 233.984 293.069 234.819C295.167 247.623 295.269 260.675 293.37 273.51C293.237 274.465 292.762 275.339 292.033 275.972C291.304 276.604 290.37 276.95 289.405 276.948Z" fill="#FF6584"/>
<path d="M277.974 250.443H268.249C267.712 250.442 267.197 250.228 266.818 249.848C266.439 249.469 266.226 248.954 266.226 248.418C266.226 247.881 266.439 247.366 266.818 246.987C267.197 246.607 267.712 246.393 268.249 246.392H277.974C278.511 246.393 279.026 246.607 279.405 246.987C279.784 247.366 279.997 247.881 279.997 248.418C279.997 248.954 279.784 249.469 279.405 249.848C279.026 250.228 278.511 250.442 277.974 250.443Z" fill="white"/>
<path d="M289.864 258.447H268.249C267.711 258.447 267.196 258.233 266.815 257.853C266.435 257.473 266.221 256.958 266.221 256.421C266.221 255.884 266.435 255.369 266.815 254.989C267.196 254.609 267.711 254.395 268.249 254.395H289.864C290.401 254.397 290.916 254.61 291.295 254.99C291.675 255.37 291.888 255.885 291.888 256.421C291.888 256.957 291.675 257.472 291.295 257.852C290.916 258.232 290.401 258.445 289.864 258.447Z" fill="white"/>
</g>
<defs>
<radialGradient id="paint0_radial_8_342" cx="0" cy="0" r="1" gradientUnits="userSpaceOnUse" gradientTransform="translate(303 303) rotate(90) scale(303)">
<stop stop-color="#444CE7" stop-opacity="0.81"/>
<stop offset="1" stop-color="#444CE7" stop-opacity="0.29"/>
</radialGradient>
<linearGradient id="paint1_linear_8_342" x1="175.047" y1="1.87602e-06" x2="360.757" y2="597.559" gradientUnits="userSpaceOnUse">
<stop stop-color="#444CE7" stop-opacity="0.81"/>
<stop offset="1" stop-opacity="0"/>
</linearGradient>
<radialGradient id="paint2_radial_8_342" cx="0" cy="0" r="1" gradientUnits="userSpaceOnUse" gradientTransform="translate(303 302) rotate(90) scale(264)">
<stop stop-color="#444CE7" stop-opacity="0.81"/>
<stop offset="1" stop-color="#444CE7" stop-opacity="0.29"/>
</radialGradient>
<linearGradient id="paint3_linear_8_342" x1="303" y1="38" x2="356.333" y2="536.667" gradientUnits="userSpaceOnUse">
<stop stop-color="#A4BCFD"/>
<stop offset="1" stop-color="#444CE7" stop-opacity="0.81"/>
</linearGradient>
<clipPath id="clip0_8_342">
<rect width="604" height="390" fill="white" transform="translate(0 84)"/>
</clipPath>
</defs>
</svg>
