<svg viewBox="0 0 30 31" fill="none" xmlns="http://www.w3.org/2000/svg">
<path d="M0 8C0 5.92893 1.67893 4.25 3.75 4.25H26.25C28.3211 4.25 30 5.92893 30 8V23C30 25.0711 28.3211 26.75 26.25 26.75H3.75C1.67893 26.75 0 25.0711 0 23V8ZM3.75 6.125C2.71447 6.125 1.875 6.96447 1.875 8V8.4067L15 16.2817L28.125 8.4067V8C28.125 6.96447 27.2855 6.125 26.25 6.125H3.75ZM28.125 10.5933L19.2974 15.8899L28.125 21.3223V10.5933ZM28.0617 23.4849L17.4859 16.9767L15 18.4683L12.5141 16.9767L1.93831 23.4849C2.15202 24.2854 2.88216 24.875 3.75 24.875H26.25C27.1178 24.875 27.848 24.2854 28.0617 23.4849ZM1.875 21.3223L10.7026 15.8899L1.875 10.5933V21.3223Z" fill="#2D31A6" fill-opacity="0.2"/>
</svg>
