<svg viewBox="0 0 30 31" fill="none" xmlns="http://www.w3.org/2000/svg">
<path d="M25.0479 21.5704C28.2399 18.7268 30 15.5 30 15.5C30 15.5 24.375 5.18751 15 5.18751C13.0962 5.18751 11.347 5.6128 9.76813 6.29064L11.2135 7.73602C12.3934 7.31221 13.6583 7.06251 15 7.06251C18.9738 7.06251 22.2731 9.25285 24.6898 11.6696C25.8819 12.8617 26.8085 14.0599 27.4364 14.9608C27.5727 15.1565 27.6945 15.3373 27.8012 15.5C27.6945 15.6627 27.5727 15.8436 27.4364 16.0392C26.8085 16.9401 25.8819 18.1383 24.6898 19.3304C24.3808 19.6395 24.0573 19.9448 23.7198 20.2423L25.0479 21.5704Z" fill="currentColor" fill-opacity="0.2"/>
<path d="M21.1828 17.7053C21.4286 17.0161 21.5625 16.2737 21.5625 15.5C21.5625 11.8756 18.6244 8.93751 15 8.93751C14.2263 8.93751 13.484 9.07139 12.7947 9.31724L14.3366 10.8591C14.5533 10.8284 14.7748 10.8125 15 10.8125C17.5888 10.8125 19.6875 12.9112 19.6875 15.5C19.6875 15.7252 19.6716 15.9467 19.6409 16.1634L21.1828 17.7053Z" fill="currentColor" fill-opacity="0.2"/>
<path d="M15.6635 20.1409L17.2053 21.6828C16.5161 21.9286 15.7737 22.0625 15 22.0625C11.3756 22.0625 8.4375 19.1244 8.4375 15.5C8.4375 14.7263 8.57138 13.9839 8.81724 13.2947L10.3591 14.8365C10.3284 15.0533 10.3125 15.2748 10.3125 15.5C10.3125 18.0888 12.4112 20.1875 15 20.1875C15.2252 20.1875 15.4467 20.1716 15.6635 20.1409Z" fill="currentColor" fill-opacity="0.2"/>
<path d="M6.2802 10.7577C5.94273 11.0552 5.61925 11.3605 5.3102 11.6696C4.11808 12.8617 3.19155 14.0599 2.56364 14.9608C2.42726 15.1565 2.30555 15.3373 2.19881 15.5C2.30555 15.6627 2.42726 15.8436 2.56364 16.0392C3.19155 16.9401 4.11808 18.1383 5.3102 19.3304C7.72693 21.7472 11.0262 23.9375 15 23.9375C16.3418 23.9375 17.6066 23.6878 18.7865 23.264L20.2319 24.7094C18.6531 25.3872 16.9039 25.8125 15 25.8125C5.625 25.8125 0 15.5 0 15.5C0 15.5 1.76009 12.2732 4.95209 9.42955L6.2802 10.7577Z" fill="currentColor" fill-opacity="0.2"/>
<path d="M25.5871 27.4129L3.08709 4.91292L4.41291 3.5871L26.9129 26.0871L25.5871 27.4129Z" fill="currentColor" fill-opacity="0.2"/>
</svg>
